<svg width="100" height="100" viewBox="0 0 100 100" fill="none" xmlns="http://www.w3.org/2000/svg">
<g clip-path="url(#clip0_2_7)">
<path d="M4 20H95V83C95 91.2843 88.2843 98 80 98H19C10.7157 98 4 91.2843 4 83V20Z" fill="white"/>
<rect x="5" y="5" width="90" height="10" fill="#3F5FA9"/>
<rect x="2.5" y="2.5" width="95" height="95" rx="12.5" stroke="black" stroke-width="5"/>
<rect x="5" y="15" width="90" height="6" fill="black"/>
<path d="M30.6172 50V38.6914H30.8164L36.6406 50H39.5938V33.0898H36.7109V44.3281H36.5117L30.6992 33.0898H27.7344V50H30.6172ZM48.5 50.2812C49.7188 50.2812 50.7734 50.0508 51.6641 49.5898C52.5547 49.1211 53.2383 48.457 53.7148 47.5977C54.1992 46.7305 54.4414 45.7109 54.4414 44.5391V42.5469C54.4414 41.3672 54.1992 40.3477 53.7148 39.4883C53.2383 38.6289 52.5547 37.9688 51.6641 37.5078C50.7734 37.0391 49.7188 36.8047 48.5 36.8047C47.2812 36.8047 46.2266 37.0391 45.3359 37.5078C44.4453 37.9688 43.7578 38.6289 43.2734 39.4883C42.7969 40.3477 42.5586 41.3672 42.5586 42.5469V44.5391C42.5586 45.7109 42.7969 46.7305 43.2734 47.5977C43.7578 48.457 44.4453 49.1211 45.3359 49.5898C46.2266 50.0508 47.2812 50.2812 48.5 50.2812ZM48.5 39.4297C49.3594 39.4297 50.0391 39.7227 50.5391 40.3086C51.0391 40.8867 51.2891 41.6758 51.2891 42.6758V44.4102C51.2891 45.4102 51.0391 46.2031 50.5391 46.7891C50.0391 47.3672 49.3594 47.6562 48.5 47.6562C47.6406 47.6562 46.9609 47.3672 46.4609 46.7891C45.9609 46.2031 45.7109 45.4102 45.7109 44.4102V42.6758C45.7109 41.6758 45.9609 40.8867 46.4609 40.3086C46.9609 39.7227 47.6406 39.4297 48.5 39.4297ZM60.6641 33.3828V37.2031H57.3008V39.7695H60.6641V45.9102C60.6641 46.9102 60.8242 47.7109 61.1445 48.3125C61.4727 48.9141 61.9922 49.3516 62.7031 49.625C63.4141 49.8906 64.3555 50.0234 65.5273 50.0234C66.0117 50.0234 66.5156 50.0156 67.0391 50C67.5703 49.9922 68.0469 49.9844 68.4688 49.9766V47.4453C68.0781 47.4531 67.6484 47.4609 67.1797 47.4688C66.7188 47.4688 66.2539 47.4688 65.7852 47.4688C65.168 47.4688 64.6914 47.3359 64.3555 47.0703C64.0273 46.8047 63.8633 46.4297 63.8633 45.9453V39.7695H68.6211V37.2031H63.8047V33.3828H60.6641ZM17.2695 78V71.2969H23.9492V68.543H17.2695V63.9609H24.6172V61.0898H13.9297V78H17.2695ZM33.6641 78.2812C34.8828 78.2812 35.9375 78.0508 36.8281 77.5898C37.7188 77.1211 38.4023 76.457 38.8789 75.5977C39.3633 74.7305 39.6055 73.7109 39.6055 72.5391V70.5469C39.6055 69.3672 39.3633 68.3477 38.8789 67.4883C38.4023 66.6289 37.7188 65.9688 36.8281 65.5078C35.9375 65.0391 34.8828 64.8047 33.6641 64.8047C32.4453 64.8047 31.3906 65.0391 30.5 65.5078C29.6094 65.9688 28.9219 66.6289 28.4375 67.4883C27.9609 68.3477 27.7227 69.3672 27.7227 70.5469V72.5391C27.7227 73.7109 27.9609 74.7305 28.4375 75.5977C28.9219 76.457 29.6094 77.1211 30.5 77.5898C31.3906 78.0508 32.4453 78.2812 33.6641 78.2812ZM33.6641 67.4297C34.5234 67.4297 35.2031 67.7227 35.7031 68.3086C36.2031 68.8867 36.4531 69.6758 36.4531 70.6758V72.4102C36.4531 73.4102 36.2031 74.2031 35.7031 74.7891C35.2031 75.3672 34.5234 75.6562 33.6641 75.6562C32.8047 75.6562 32.125 75.3672 31.625 74.7891C31.125 74.2031 30.875 73.4102 30.875 72.4102V70.6758C30.875 69.6758 31.125 68.8867 31.625 68.3086C32.125 67.7227 32.8047 67.4297 33.6641 67.4297ZM54.2539 65.0742H51.0547V72.5391C51.0547 73.4375 50.8086 74.1523 50.3164 74.6836C49.8242 75.207 49.168 75.4688 48.3477 75.4688C47.5352 75.4688 46.9336 75.2422 46.543 74.7891C46.1523 74.3281 45.957 73.6211 45.957 72.668V65.0742H42.7461V73.4297C42.7461 75.0078 43.1133 76.2109 43.8477 77.0391C44.582 77.8594 45.6523 78.2695 47.0586 78.2695C47.9883 78.2695 48.7891 78.0586 49.4609 77.6367C50.1406 77.2148 50.6367 76.6133 50.9492 75.832H51.1484V78H54.2539V65.0742ZM57.582 78H60.7812V70.5352C60.7812 69.6367 61.0273 68.9258 61.5195 68.4023C62.0117 67.8711 62.668 67.6055 63.4883 67.6055C64.3008 67.6055 64.9023 67.8359 65.293 68.2969C65.6836 68.75 65.8789 69.4531 65.8789 70.4062V78H69.0898V69.6445C69.0898 68.0664 68.7227 66.8672 67.9883 66.0469C67.2539 65.2188 66.1836 64.8047 64.7773 64.8047C63.8477 64.8047 63.043 65.0156 62.3633 65.4375C61.6914 65.8594 61.1992 66.4609 60.8867 67.2422H60.6875V65.0742H57.582V78ZM76.7539 78.1992C75.7617 78.1992 74.9141 77.9805 74.2109 77.543C73.5078 77.1055 72.9688 76.4727 72.5938 75.6445C72.2266 74.8164 72.043 73.8164 72.043 72.6445V70.418C72.043 69.2383 72.2266 68.2383 72.5938 67.418C72.9688 66.5898 73.5078 65.957 74.2109 65.5195C74.9141 65.082 75.7617 64.8633 76.7539 64.8633C77.6758 64.8633 78.4492 65.0742 79.0742 65.4961C79.6992 65.9102 80.1172 66.5039 80.3281 67.2773H80.5742V60.1523H83.9141V78H80.6094V75.7734H80.375C80.1484 76.5547 79.7227 77.1562 79.0977 77.5781C78.4727 77.9922 77.6914 78.1992 76.7539 78.1992ZM77.9844 75.4219C78.8125 75.4219 79.4648 75.168 79.9414 74.6602C80.418 74.1445 80.6562 73.4414 80.6562 72.5508V70.418C80.6562 69.5273 80.418 68.8281 79.9414 68.3203C79.4648 67.8125 78.8125 67.5586 77.9844 67.5586C77.1484 67.5586 76.4922 67.8125 76.0156 68.3203C75.5469 68.8281 75.3125 69.5273 75.3125 70.418V72.5508C75.3125 73.4414 75.5469 74.1445 76.0156 74.6602C76.4922 75.168 77.1484 75.4219 77.9844 75.4219Z" fill="black"/>
</g>
<defs>
<clipPath id="clip0_2_7">
<rect width="100" height="100" fill="white"/>
</clipPath>
</defs>
</svg>
